<svg width="62" height="47" fill="none" xmlns="http://www.w3.org/2000/svg"><path d="M31.015 45.49c15.179 0 22.039-1.283 22.039-1.283 2.162-.403 4.666-2.4 5.566-4.438 0 0 2.38-5.401 2.38-16.524 0-11.122-2.38-16.523-2.38-16.523-.9-2.028-3.393-4.025-5.566-4.439 0 0-6.86-1.283-22.039-1.283h-.04c-15.18 0-22.04 1.283-22.04 1.283-2.162.404-4.665 2.4-5.555 4.439 0 0-2.38 5.4-2.38 16.523S3.38 39.77 3.38 39.77c.9 2.038 3.393 4.025 5.566 4.438 0 0 6.86 1.283 22.038 1.283h.031z" stroke="#fff" stroke-width="2" stroke-miterlimit="10" stroke-linecap="round" stroke-linejoin="round"/><path d="M23.763 34.11V12.38l18.624 10.347-18.624 11.381z" fill="#fff"/></svg>