<svg width="26" height="24" fill="none" xmlns="http://www.w3.org/2000/svg"><path d="M24.201 5.138H1.8a.802.802 0 00-.8.799v15.777c0 .443.36.803.799.803h22.398c.439 0 .799-.36.799-.798V5.937a.796.796 0 00-.795-.8zm-12.856 6.62H1m24 0H14.655" stroke="#28222B" stroke-miterlimit="10" stroke-linecap="round" stroke-linejoin="round"/><path d="M8.862 5.138V2.655c0-.91.745-1.655 1.655-1.655h4.966c.91 0 1.655.745 1.655 1.655v2.483m-2.483 5.793v2.483A1.66 1.66 0 0113 15.069c-.455 0-.87-.19-1.167-.488a1.652 1.652 0 01-.488-1.167V10.93c0-.91.745-1.655 1.655-1.655.455 0 .869.19 1.167.488.298.298.488.712.488 1.167z" stroke="#28222B" stroke-miterlimit="10" stroke-linecap="round" stroke-linejoin="round"/></svg>