<svg width="30" height="23" fill="none" xmlns="http://www.w3.org/2000/svg"><path d="M16.253 15.167l-7.792 4.25v1.417c0 .39.308.709.684.709h19.171a.696.696 0 00.684-.709v-1.417l-7.778-4.25m0 0c2.822-1.686 2.822-6.078 2.822-6.078l-.003-4.044C23.658 2.75 21.062 1 18.73 1c-2.326 0-4.926 1.75-5.309 4.045l-.003 4.044s0 4.272 2.833 6.078m-7.459 0L1 19.417v1.417c0 .39.308.709.684.709l4.629.003m6.75-20.224A5.38 5.38 0 0011.27 1C8.944 1 6.344 2.75 5.96 5.045l-.003 4.044s0 4.272 2.833 6.078" stroke="#28222B" stroke-miterlimit="10" stroke-linecap="round" stroke-linejoin="round"/></svg>