<svg width="26" height="26" fill="none" xmlns="http://www.w3.org/2000/svg"><path d="M25 24.173a.83.83 0 01-.828.827H1.828A.83.83 0 011 24.173V4.31a.83.83 0 01.828-.828h22.344A.83.83 0 0125 4.31v19.862zM8.861 1v4.138M17.139 1v4.138" stroke="#28222B" stroke-miterlimit="10" stroke-linecap="round" stroke-linejoin="round"/><path d="M7.621 10.517H5.966v1.655H7.62v-1.655zm6.207 0h-1.655v1.655h1.655v-1.655zm6.207 0H18.38v1.655h1.655v-1.655zM7.621 16.724H5.966v1.655H7.62v-1.655zm6.207 0h-1.655v1.655h1.655v-1.655zm6.207 0H18.38v1.655h1.655v-1.655z" stroke="#28222B" stroke-miterlimit="10" stroke-linecap="round" stroke-linejoin="round"/></svg>