<svg width="213" height="70" fill="none" xmlns="http://www.w3.org/2000/svg"><g clip-path="url(#clip0)"><path d="M85.613 53.46c0 .726-.219 1.312-.647 1.758-.429.446-.997.665-1.706.665-.708 0-1.277-.219-1.697-.665-.428-.446-.638-1.032-.638-1.758v-5.405c0-.726.21-1.312.638-1.758.429-.447.989-.674 1.697-.674.709 0 1.277.227 1.706.674.428.446.647 1.032.647 1.758v.358H84.51v-.358c0-.403-.114-.726-.341-.962-.228-.245-.534-.36-.91-.36s-.673.123-.9.36c-.22.236-.333.56-.333.962v5.405c0 .402.114.726.332.962.219.245.525.359.901.359s.682-.123.91-.359c.227-.245.34-.56.34-.962v-.35h1.103v.35zm10.382-7.618l-2.335 4.88v4.96h-1.102v-4.96l-2.344-4.88h1.128l1.776 3.743 1.758-3.743h1.12zm9.753 5.501c.131.307.192.639.192 1.015v1.059c0 .673-.201 1.215-.594 1.635-.403.42-.928.621-1.584.621h-2.554v-9.831h2.432c.656 0 1.181.21 1.583.62.402.412.595.963.595 1.636v.84c0 .332-.053.639-.166.927a2.194 2.194 0 01-.455.726 2 2 0 01.551.752zm-3.438-1.242h1.33c.324 0 .586-.105.778-.323.202-.21.298-.499.298-.849v-.84c0-.35-.096-.63-.298-.839-.192-.21-.454-.315-.778-.315h-1.33v3.166zm2.537 2.257c0-.35-.096-.63-.297-.84-.193-.21-.455-.315-.779-.315h-1.461v3.377h1.461c.324 0 .586-.105.779-.315.192-.21.297-.49.297-.84v-1.067zm10.907-5.414h-2.878v3.227h2.519v1.102h-2.519v3.307h2.878v1.102h-3.98v-9.84h3.98v1.102zm9.98 3.569c-.14.314-.332.568-.595.77.254.157.455.367.595.629.14.262.21.551.21.883v2.887h-1.102v-2.887c0-.323-.096-.586-.297-.778-.193-.192-.455-.289-.779-.289h-1.329v3.945h-1.102v-9.831h2.431c.656 0 1.181.21 1.583.62.403.412.595.963.595 1.636v1.365c-.009.393-.07.743-.21 1.05zm-1.189-.21c.201-.21.297-.499.297-.849V48.09c0-.35-.096-.63-.297-.84-.193-.21-.455-.315-.779-.315h-1.329v3.691h1.329c.315 0 .577-.105.779-.323zm13.163 4.915c-.428-.446-.638-1.032-.638-1.758v-.35h1.102v.35c0 .402.114.726.341.962.227.245.534.359.91.359s.673-.123.909-.359c.228-.245.341-.56.341-.962v-.77c0-.402-.113-.725-.341-.962-.227-.245-.533-.358-.909-.358-.709 0-1.277-.219-1.706-.665-.429-.446-.638-1.032-.638-1.758v-.884c0-.726.209-1.312.638-1.758.429-.446.997-.673 1.706-.673.708 0 1.277.227 1.705.673.429.446.639 1.032.639 1.758v.359h-1.102v-.359c0-.402-.114-.726-.341-.962-.228-.245-.534-.358-.91-.358s-.682.122-.91.358c-.227.236-.341.56-.341.962v.884c0 .393.114.708.341.953.228.245.534.368.91.368.708 0 1.277.218 1.706.664.428.446.638 1.032.638 1.758v.77c0 .726-.219 1.312-.638 1.758-.429.446-.998.665-1.706.665-.7.009-1.277-.219-1.706-.665zm14.205-8.274h-2.878v3.227h2.519v1.102h-2.519v3.307h2.878v1.102h-3.971v-9.84h3.971v1.102zm10.531 6.516c0 .726-.219 1.312-.647 1.758-.429.446-.997.665-1.706.665-.708 0-1.277-.219-1.697-.665-.428-.446-.638-1.032-.638-1.758v-5.405c0-.726.21-1.312.638-1.758.429-.447.989-.674 1.697-.674.709 0 1.277.227 1.706.674.428.446.647 1.032.647 1.758v.358h-1.102v-.358c0-.403-.114-.726-.341-.962-.228-.245-.534-.36-.91-.36s-.673.123-.901.36c-.218.236-.332.56-.332.962v5.405c0 .402.114.726.332.962.219.245.525.359.901.359s.682-.123.91-.359c.227-.245.341-.56.341-.962v-.35h1.102v.35zm10.636 0c0 .726-.219 1.312-.647 1.758-.429.446-.997.665-1.706.665-.708 0-1.277-.219-1.697-.665-.428-.446-.638-1.032-.638-1.758v-7.618h1.102v7.618c0 .402.114.726.332.962.219.245.525.359.901.359s.682-.123.91-.359c.227-.245.341-.56.341-.962v-7.618h1.102v7.618zm10.907-2.947c-.14.314-.332.568-.595.77.254.157.455.367.595.629.14.262.21.551.21.883v2.887h-1.102v-2.887c0-.323-.096-.586-.297-.778-.193-.192-.455-.289-.779-.289h-1.329v3.945h-1.102v-9.831h2.431c.656 0 1.181.21 1.583.62.403.412.595.963.595 1.636v1.365a2.812 2.812 0 01-.21 1.05zm-1.198-.21c.201-.21.297-.499.297-.849V48.09c0-.35-.096-.63-.297-.84-.192-.21-.455-.315-.779-.315h-1.329v3.691h1.329c.324 0 .587-.105.779-.323zm7.802 5.379v-9.84h1.102v9.84h-1.102zm8.432-8.738h-1.653v-1.102h4.408v1.102h-1.653v8.738h-1.102v-8.738zm13.251-1.102l-2.335 4.88v4.96h-1.102v-4.96l-2.344-4.88h1.128l1.775 3.743 1.759-3.743h1.119zm-130.947-8.31c-.428-.446-.638-1.032-.638-1.758v-.35h1.102v.35c0 .402.113.726.34.962.228.245.534.359.91.359.377 0 .674-.123.91-.359.228-.236.341-.56.341-.962v-.77c0-.402-.114-.725-.34-.962-.228-.236-.534-.358-.91-.358-.71 0-1.278-.219-1.706-.665-.429-.446-.639-1.032-.639-1.758v-.875c0-.726.21-1.312.639-1.758.428-.446.997-.673 1.705-.673.709 0 1.277.227 1.706.673.429.446.638 1.032.638 1.758v.35h-1.102v-.35c0-.402-.113-.726-.34-.962-.228-.236-.534-.359-.91-.359-.377 0-.683.123-.91.359-.227.236-.341.56-.341.962v.875c0 .393.114.717.341.953.227.245.533.368.91.368.708 0 1.277.227 1.705.673.429.446.639 1.032.639 1.758v.77c0 .726-.219 1.312-.639 1.758-.428.446-.997.674-1.705.674-.709 0-1.277-.237-1.706-.683zm10.645 0c-.429-.446-.639-1.032-.639-1.758V30.37c0-.726.21-1.312.639-1.759.428-.446.988-.673 1.697-.673.708 0 1.277.227 1.705.673.429.447.648 1.033.648 1.759v5.405c0 .726-.22 1.312-.648 1.758-.428.446-.997.674-1.705.674-.709 0-1.277-.228-1.697-.674zm2.606-.796c.228-.236.341-.56.341-.962V30.37c0-.403-.113-.726-.34-.962-.228-.237-.534-.36-.91-.36s-.674.123-.901.36c-.219.236-.333.56-.333.962v5.405c0 .402.114.726.333.962.218.245.525.359.9.359.377.009.683-.114.91-.359zm8.546-7.478h-1.662v-1.102h4.408v1.102h-1.653v8.738h-1.102v-8.738h.009zm12.306 0h-2.877v3.227h2.519v1.102h-2.519v3.307h2.877v1.102h-3.971v-9.84h3.971v1.102zm10.313 3.569c-.14.314-.332.568-.595.77.254.157.455.367.595.629.14.262.21.551.21.875v2.886h-1.102v-2.886c0-.324-.096-.586-.298-.779-.192-.192-.454-.288-.778-.288h-1.33v3.953h-1.102v-9.831h2.432c.656 0 1.181.21 1.583.62.402.412.595.963.595 1.636v1.365c-.009.393-.07.743-.21 1.05zm-1.198-.21c.201-.21.297-.499.297-.849v-1.364c0-.35-.096-.63-.297-.84-.193-.21-.455-.315-.779-.315h-1.329v3.683h1.329c.324.008.586-.097.779-.315zm7.714 5.379v-9.84h1.102v9.84h-1.102zm12.158 0h-1.137l-.385-1.898h-2.309l-.394 1.898h-1.137l2.1-9.84h1.18l2.082 9.84zm-1.723-3.009l-.953-4.863-.954 4.863h1.907z" fill="#F4F6FC"/><path d="M9.718 0L.026 4.994 0 16.461l9.718 6.22V0z" fill="#CBB7CE"/><path d="M9.718 0l9.717 6.219-9.717 5.117V0z" fill="#F4F6FC"/><path d="M9.718 11.336V22.68l9.639 6.167V17.485l-9.64-6.15z" fill="#F4F6FC"/><path d="M19.357 17.485l9.805-5.056v11.318l-9.805 5.1V17.485z" fill="#CBB7CE"/><path d="M29.162 12.43l19.435 12.437v11.318l-9.718 5.143.009-11.353-9.726-6.228V12.43z" fill="#F4F6FC"/><path d="M19.357 51.29l-9.64-6.166V33.762l9.64-4.915V51.29z" fill="#CBB7CE"/><path d="M29.18 35.03l-9.823 5.065V28.847l9.822 6.184zm-9.823 5.065V51.29l9.805 6.27V46.437l-9.805-6.341z" fill="#F4F6FC"/><path d="M29.162 57.562l9.717-4.907V41.328l-9.717 5.108v11.126zm.017-22.532l9.709-5.055-.009 11.353-9.7-6.297z" fill="#CBB7CE"/><path d="M38.88 41.328l19.233 12.307v11.318L48.597 70V58.638l-9.718-5.983V41.328z" fill="#F4F6FC"/><path d="M48.597 70l-9.84-6.297 9.84-5.065V70z" fill="#CBB7CE"/></g><defs><clipPath id="clip0"><path fill="#fff" d="M0 0h212.274v70H0z"/></clipPath></defs></svg>