<svg width="36" height="36" fill="none" xmlns="http://www.w3.org/2000/svg"><circle cx="18" cy="18" r="18" fill="#2253FF"/><path d="M14.665 18.787c-.51 0-.875.034-1.135.083v3.84h.83v-1.395c.075.01.175.02.285.02.495 0 .92-.128 1.205-.408.22-.22.34-.545.34-.923 0-.383-.16-.702-.395-.898-.245-.216-.615-.32-1.13-.32zm-.025 1.87c-.12 0-.21-.005-.28-.024v-1.15c.06-.019.175-.034.345-.034.42 0 .655.216.655.57 0 .403-.275.638-.72.638zm3.025-1.87c-.425 0-.825.03-1.135.083v3.824c.21.03.515.06.95.06.725 0 1.32-.163 1.71-.502.355-.319.615-.83.615-1.575 0-.688-.24-1.169-.625-1.468-.355-.29-.815-.422-1.515-.422zm0 3.274c-.105 0-.22 0-.29-.02v-2.547c.07-.02.195-.035.38-.035.72 0 1.17.427 1.165 1.237-.005.933-.5 1.37-1.255 1.365zM22 7H11c-1.105 0-2 .879-2 1.964v17.672c0 1.085.895 1.964 2 1.964h14c1.105 0 2-.879 2-1.964V12.4L22 7zm4 19.636a.99.99 0 01-1 .982H11a.99.99 0 01-1-.982V8.964c0-.54.45-.982 1-.982h9v4.909c0 .54.45.982 1 .982h5v12.763zm-5-13.745V7.98h.5l4.5 4.91h-5zm-.47 9.818h.84v-1.566h1.33v-.717h-1.33v-.888h1.425v-.722H20.53v3.893z" fill="#fff"/></svg>